Coordinates
nRows=157
nColumns=2
inDegrees=yes
endheader
time	ankle_angle_r	
4.18723	  0.228882	
4.24973	  0.183105	
4.31222	  0.228882	
4.37472	  0.137329	
4.43722	  0.167847	
4.49971	  0.167847	
4.56221	  0.122070	
4.6247	  0.228882	
4.6872	  0.198364	
4.7497	  0.183105	
4.81219	  0.244141	
4.87469	  0.122070	
4.93718	  0.076294	
4.99968	  0.106812	
5.06218	  0.030518	
5.12467	  0.244141	
5.18717	  0.152588	
5.24966	  0.122070	
5.31216	  0.137329	
5.37466	  0.045776	
5.43715	  0.091553	
5.49965	  0.076294	
5.56214	  0.061035	
5.62464	  0.228882	
5.68714	  0.167847	
5.74963	  0.213623	
5.81213	  0.228882	
5.87462	  0.122070	
5.93712	  0.167847	
5.99962	  0.137329	
6.06211	  0.106812	
6.12461	  0.274658	
6.1871	  0.198364	
6.2496	  0.228882	
6.3121	  0.198364	
6.37459	  0.061035	
6.43709	  0.106812	
6.49958	  0.076294	
6.56208	  0.091553	
6.62458	  0.167847	
6.68707	  0.106812	
6.74957	  0.167847	
6.81206	  0.106812	
6.87456	  0.091553	
6.93706	  0.091553	
6.99955	  0.061035	
7.06205	  0.183105	
7.12454	  0.167847	
7.18704	  0.183105	
7.24954	  0.244141	
7.31203	  0.106812	
7.37453	  0.183105	
7.43702	  0.183105	
7.49952	  0.106812	
7.56202	  0.259399	
7.62451	  0.213623	
7.68701	  0.198364	
7.7495	  0.228882	
7.812	  0.106812	
7.8745	  0.122070	
7.93699	  0.152588	
7.99949	  0.076294	
8.06198	  0.213623	
8.12448	  0.137329	
8.18698	  0.137329	
8.24947	  0.198364	
8.31197	  0.045776	
8.37446	  0.091553	
8.43696	  0.091553	
8.49946	  0.061035	
8.56195	  0.213623	
8.62445	  0.167847	
8.68694	  0.213623	
8.74944	  0.198364	
8.81194	  0.137329	
8.87443	  0.183105	
8.93693	  0.167847	
8.99942	  0.213623	
9.06192	  0.228882	
9.12442	  0.213623	
9.18691	  0.244141	
9.24941	  0.137329	
9.3119	  0.122070	
9.3744	  0.152588	
9.4369	  0.076294	
9.49939	  0.167847	
9.56189	  0.122070	
9.62438	  0.122070	
9.68688	  0.152588	
9.74938	  0.045776	
9.81187	  0.061035	
9.87437	  0.091553	
9.93686	  0.030518	
9.99936	  0.198364	
10.0619	  0.106812	
10.1244	  0.122070	
10.1868	  0.137329	
10.2493	  0.015259	
10.3118	  0.091553	
10.3743	  0.030518	
10.4368	  0.030518	
10.4993	  0.183105	
10.5618	  0.076294	
10.6243	  0.137329	
10.6868	  0.183105	
10.7493	  0.106812	
10.8118	  0.137329	
10.8743	  0.091553	
10.9368	  0.152588	
10.9993	  0.198364	
11.0618	  0.152588	
11.1243	  0.228882	
11.1868	  0.167847	
11.2493	  0.137329	
11.3118	  0.183105	
11.3743	  0.106812	
11.4368	  0.244141	
11.4993	  0.198364	
11.5618	  0.152588	
11.6243	  0.244141	
11.6868	  0.030518	
11.7492	  0.091553	
11.8117	  0.061035	
11.8742	  0.045776	
11.9367	  0.198364	
11.9992	  0.106812	
12.0617	  0.122070	
12.1242	  0.122070	
12.1867	  0.030518	
12.2492	  0.061035	
12.3117	  0.061035	
12.3742	  0.045776	
12.4367	  0.152588	
12.4992	  0.091553	
12.5617	  0.152588	
12.6242	  0.122070	
12.6867	  0.000000	
12.7492	  0.076294	
12.8117	  0.045776	
12.8742	  0.106812	
12.9367	  0.137329	
12.9992	  0.152588	
13.0617	  0.183105	
13.1242	  0.152588	
13.1867	  0.122070	
13.2492	  0.198364	
13.3116	  0.091553	
13.3741	  0.244141	
13.4366	  0.213623	
13.4991	  0.183105	
13.5616	  0.228882	
13.6241	  0.106812	
13.6866	  0.137329	
13.7491	  0.167847	
13.8116	  0.076294	
13.8741	  0.228882	
13.9366	  0.167847	
